<?xml version="1.0" standalone="no"?>
<!DOCTYPE svg PUBLIC "-//W3C//DTD SVG 20010904//EN"
 "http://www.w3.org/TR/2001/REC-SVG-20010904/DTD/svg10.dtd">
<svg version="1.0" xmlns="http://www.w3.org/2000/svg"
 width="512.000000pt" height="512.000000pt" viewBox="0 0 512.000000 512.000000"
 preserveAspectRatio="xMidYMid meet">
<metadata>
Created by potrace 1.11, written by Peter Selinger 2001-2013
</metadata>
<g transform="translate(0.000000,512.000000) scale(0.100000,-0.100000)"
fill="#000000" stroke="none">
<path d="M351 5104 c-158 -43 -285 -170 -336 -339 -13 -44 -15 -310 -12 -2225
l2 -2175 22 -55 c56 -137 155 -231 299 -286 l64 -24 2183 3 2182 2 55 23 c151
62 273 204 300 351 14 75 13 4309 -1 4370 -35 156 -162 297 -312 348 -49 17
-180 18 -2222 20 -1873 2 -2177 0 -2224 -13z"/>
</g>
</svg>
